<svg xmlns="http://www.w3.org/2000/svg" fill="none" viewBox="0 0 24 24">
  <g clip-path="url(#a)">
    <path fill="#557EBF" d="M12 24a12 12 0 1 0 0-24 12 12 0 0 0 0 24Z"/>
    <path fill="#fff" d="M17.88 6.97a1 1 0 0 0-.96-.78H7.08a.99.99 0 0 0-.96.78l-.77 3.49v.02c0 .68.35 1.27.88 1.6v4.74a1 1 0 0 0 .99.99h9.6c.53 0 .97-.44.97-.99v-4.76c.52-.34.86-.92.86-1.58v-.02l-.77-3.5Zm-9.34 3.5v.01a1.32 1.32 0 0 1-2.63.03l.76-3.42c.04-.2.21-.34.41-.34H9l-.46 3.72Zm3.18.01a1.32 1.32 0 0 1-2.63.02l.46-3.74h2.17v3.72Zm.56 0V6.75h2.17l.46 3.75a1.32 1.32 0 0 1-2.63-.02Zm2.5 6.02a1.57 1.57 0 1 1 1.05-2.72l-.43.41a.88.88 0 0 0-.62-.24.98.98 0 0 0-.97.99c0 .54.44.99.97.99.62 0 .85-.45.89-.68h-.89v-.54h1.48l.02.26c0 .9-.6 1.53-1.5 1.53Zm2-4.7c-.73 0-1.32-.6-1.32-1.32v-.01L15 6.75h1.92c.2 0 .38.14.41.34l.76 3.42c-.01.72-.6 1.29-1.31 1.29Z"/>
  </g>
  <defs>
    <clipPath id="a">
      <path fill="#fff" d="M0 0h24v24H0z"/>
    </clipPath>
  </defs>
</svg>
